<svg xmlns="http://www.w3.org/2000/svg" viewBox="0 0 520 520" width="520" height="520">
  <title>Påskeharen — Prikk-til-prikk (100 prikker)</title>

  <!-- Background -->
  <rect width="520" height="520" fill="#ffffff"/>

  <!-- Title -->
  <text x="260" y="28" text-anchor="middle" font-size="15" font-family="Arial" font-weight="bold" fill="#888">Koble prikkene 1 → 100!</text>

  <!-- ============================================================
       PATH A: Bunny silhouette (dots 1–72)
       Start: top of upright right ear, clockwise
       ============================================================ -->

  <!-- Right ear (upright) outer edge: 1–6 -->
  <circle cx="296" cy="178" r="6" fill="#333"/><text x="296" y="169" text-anchor="middle" font-size="10" font-family="Arial" font-weight="bold" fill="#555">1</text>
  <circle cx="312" cy="150" r="6" fill="#333"/><text x="312" y="141" text-anchor="middle" font-size="10" font-family="Arial" font-weight="bold" fill="#555">2</text>
  <circle cx="320" cy="118" r="6" fill="#333"/><text x="320" y="109" text-anchor="middle" font-size="10" font-family="Arial" font-weight="bold" fill="#555">3</text>
  <circle cx="318" cy="88" r="6" fill="#333"/><text x="318" y="79" text-anchor="middle" font-size="10" font-family="Arial" font-weight="bold" fill="#555">4</text>
  <circle cx="308" cy="66" r="6" fill="#333"/><text x="308" y="57" text-anchor="middle" font-size="10" font-family="Arial" font-weight="bold" fill="#555">5</text>
  <circle cx="292" cy="58" r="6" fill="#333"/><text x="292" y="49" text-anchor="middle" font-size="10" font-family="Arial" font-weight="bold" fill="#555">6</text>

  <!-- Right ear inner/left edge: 7–12 -->
  <circle cx="275" cy="65" r="6" fill="#333"/><text x="275" y="56" text-anchor="middle" font-size="10" font-family="Arial" font-weight="bold" fill="#555">7</text>
  <circle cx="265" cy="88" r="6" fill="#333"/><text x="265" y="79" text-anchor="middle" font-size="10" font-family="Arial" font-weight="bold" fill="#555">8</text>
  <circle cx="262" cy="115" r="6" fill="#333"/><text x="262" y="106" text-anchor="middle" font-size="10" font-family="Arial" font-weight="bold" fill="#555">9</text>
  <circle cx="265" cy="142" r="6" fill="#333"/><text x="265" y="133" text-anchor="middle" font-size="10" font-family="Arial" font-weight="bold" fill="#555">10</text>
  <circle cx="272" cy="162" r="6" fill="#333"/><text x="272" y="153" text-anchor="middle" font-size="10" font-family="Arial" font-weight="bold" fill="#555">11</text>
  <circle cx="280" cy="172" r="6" fill="#333"/><text x="280" y="163" text-anchor="middle" font-size="10" font-family="Arial" font-weight="bold" fill="#555">12</text>

  <!-- Left ear (flopped) outer: 13–20 -->
  <circle cx="262" cy="160" r="6" fill="#333"/><text x="255" y="152" text-anchor="middle" font-size="10" font-family="Arial" font-weight="bold" fill="#555">13</text>
  <circle cx="242" cy="142" r="6" fill="#333"/><text x="235" y="134" text-anchor="middle" font-size="10" font-family="Arial" font-weight="bold" fill="#555">14</text>
  <circle cx="218" cy="122" r="6" fill="#333"/><text x="211" y="114" text-anchor="middle" font-size="10" font-family="Arial" font-weight="bold" fill="#555">15</text>
  <circle cx="192" cy="108" r="6" fill="#333"/><text x="185" y="100" text-anchor="middle" font-size="10" font-family="Arial" font-weight="bold" fill="#555">16</text>
  <circle cx="165" cy="100" r="6" fill="#333"/><text x="158" y="92" text-anchor="middle" font-size="10" font-family="Arial" font-weight="bold" fill="#555">17</text>
  <circle cx="145" cy="108" r="6" fill="#333"/><text x="136" y="100" text-anchor="middle" font-size="10" font-family="Arial" font-weight="bold" fill="#555">18</text>
  <circle cx="138" cy="128" r="6" fill="#333"/><text x="129" y="120" text-anchor="middle" font-size="10" font-family="Arial" font-weight="bold" fill="#555">19</text>
  <circle cx="142" cy="150" r="6" fill="#333"/><text x="133" y="142" text-anchor="middle" font-size="10" font-family="Arial" font-weight="bold" fill="#555">20</text>

  <!-- Left ear inner/return: 21–24 -->
  <circle cx="155" cy="164" r="6" fill="#333"/><text x="146" y="156" text-anchor="middle" font-size="10" font-family="Arial" font-weight="bold" fill="#555">21</text>
  <circle cx="175" cy="168" r="6" fill="#333"/><text x="168" y="160" text-anchor="middle" font-size="10" font-family="Arial" font-weight="bold" fill="#555">22</text>
  <circle cx="198" cy="165" r="6" fill="#333"/><text x="198" y="156" text-anchor="middle" font-size="10" font-family="Arial" font-weight="bold" fill="#555">23</text>
  <circle cx="222" cy="162" r="6" fill="#333"/><text x="222" y="153" text-anchor="middle" font-size="10" font-family="Arial" font-weight="bold" fill="#555">24</text>

  <!-- Head left side: 25–32 -->
  <circle cx="242" cy="162" r="6" fill="#333"/><text x="235" y="155" text-anchor="middle" font-size="10" font-family="Arial" font-weight="bold" fill="#555">25</text>
  <circle cx="232" cy="180" r="6" fill="#333"/><text x="222" y="175" text-anchor="middle" font-size="10" font-family="Arial" font-weight="bold" fill="#555">26</text>
  <circle cx="228" cy="205" r="6" fill="#333"/><text x="218" y="200" text-anchor="middle" font-size="10" font-family="Arial" font-weight="bold" fill="#555">27</text>
  <circle cx="230" cy="232" r="6" fill="#333"/><text x="220" y="227" text-anchor="middle" font-size="10" font-family="Arial" font-weight="bold" fill="#555">28</text>
  <circle cx="238" cy="258" r="6" fill="#333"/><text x="228" y="253" text-anchor="middle" font-size="10" font-family="Arial" font-weight="bold" fill="#555">29</text>
  <circle cx="252" cy="278" r="6" fill="#333"/><text x="242" y="273" text-anchor="middle" font-size="10" font-family="Arial" font-weight="bold" fill="#555">30</text>
  <circle cx="270" cy="290" r="6" fill="#333"/><text x="263" y="302" text-anchor="middle" font-size="10" font-family="Arial" font-weight="bold" fill="#555">31</text>
  <circle cx="292" cy="295" r="6" fill="#333"/><text x="292" y="307" text-anchor="middle" font-size="10" font-family="Arial" font-weight="bold" fill="#555">32</text>

  <!-- Head right side: 33–38 -->
  <circle cx="315" cy="290" r="6" fill="#333"/><text x="322" y="302" text-anchor="middle" font-size="10" font-family="Arial" font-weight="bold" fill="#555">33</text>
  <circle cx="335" cy="275" r="6" fill="#333"/><text x="344" y="272" text-anchor="middle" font-size="10" font-family="Arial" font-weight="bold" fill="#555">34</text>
  <circle cx="348" cy="252" r="6" fill="#333"/><text x="358" y="249" text-anchor="middle" font-size="10" font-family="Arial" font-weight="bold" fill="#555">35</text>
  <circle cx="352" cy="225" r="6" fill="#333"/><text x="362" y="222" text-anchor="middle" font-size="10" font-family="Arial" font-weight="bold" fill="#555">36</text>
  <circle cx="345" cy="198" r="6" fill="#333"/><text x="355" y="195" text-anchor="middle" font-size="10" font-family="Arial" font-weight="bold" fill="#555">37</text>
  <circle cx="332" cy="178" r="6" fill="#333"/><text x="342" y="172" text-anchor="middle" font-size="10" font-family="Arial" font-weight="bold" fill="#555">38</text>

  <!-- Right shoulder + arm: 39–48 -->
  <circle cx="338" cy="295" r="6" fill="#333"/><text x="348" y="305" text-anchor="middle" font-size="10" font-family="Arial" font-weight="bold" fill="#555">39</text>
  <circle cx="352" cy="308" r="6" fill="#333"/><text x="362" y="318" text-anchor="middle" font-size="10" font-family="Arial" font-weight="bold" fill="#555">40</text>
  <circle cx="368" cy="315" r="6" fill="#333"/><text x="378" y="312" text-anchor="middle" font-size="10" font-family="Arial" font-weight="bold" fill="#555">41</text>
  <circle cx="382" cy="305" r="6" fill="#333"/><text x="392" y="302" text-anchor="middle" font-size="10" font-family="Arial" font-weight="bold" fill="#555">42</text>
  <circle cx="392" cy="295" r="6" fill="#333"/><text x="402" y="292" text-anchor="middle" font-size="10" font-family="Arial" font-weight="bold" fill="#555">43</text>
  <circle cx="398" cy="312" r="6" fill="#333"/><text x="408" y="318" text-anchor="middle" font-size="10" font-family="Arial" font-weight="bold" fill="#555">44</text>
  <circle cx="392" cy="328" r="6" fill="#333"/><text x="402" y="335" text-anchor="middle" font-size="10" font-family="Arial" font-weight="bold" fill="#555">45</text>
  <circle cx="380" cy="340" r="6" fill="#333"/><text x="390" y="347" text-anchor="middle" font-size="10" font-family="Arial" font-weight="bold" fill="#555">46</text>
  <circle cx="365" cy="345" r="6" fill="#333"/><text x="372" y="355" text-anchor="middle" font-size="10" font-family="Arial" font-weight="bold" fill="#555">47</text>
  <circle cx="352" cy="340" r="6" fill="#333"/><text x="345" y="352" text-anchor="middle" font-size="10" font-family="Arial" font-weight="bold" fill="#555">48</text>

  <!-- Right body side + right leg: 49–60 -->
  <circle cx="368" cy="355" r="6" fill="#333"/><text x="378" y="352" text-anchor="middle" font-size="10" font-family="Arial" font-weight="bold" fill="#555">49</text>
  <circle cx="378" cy="380" r="6" fill="#333"/><text x="388" y="377" text-anchor="middle" font-size="10" font-family="Arial" font-weight="bold" fill="#555">50</text>
  <circle cx="380" cy="408" r="6" fill="#333"/><text x="390" y="405" text-anchor="middle" font-size="10" font-family="Arial" font-weight="bold" fill="#555">51</text>
  <circle cx="372" cy="432" r="6" fill="#333"/><text x="382" y="429" text-anchor="middle" font-size="10" font-family="Arial" font-weight="bold" fill="#555">52</text>
  <circle cx="370" cy="448" r="6" fill="#333"/><text x="380" y="458" text-anchor="middle" font-size="10" font-family="Arial" font-weight="bold" fill="#555">53</text>
  <circle cx="385" cy="458" r="6" fill="#333"/><text x="395" y="466" text-anchor="middle" font-size="10" font-family="Arial" font-weight="bold" fill="#555">54</text>
  <circle cx="395" cy="468" r="6" fill="#333"/><text x="400" y="479" text-anchor="middle" font-size="10" font-family="Arial" font-weight="bold" fill="#555">55</text>
  <circle cx="385" cy="476" r="6" fill="#333"/><text x="382" y="487" text-anchor="middle" font-size="10" font-family="Arial" font-weight="bold" fill="#555">56</text>
  <circle cx="368" cy="474" r="6" fill="#333"/><text x="361" y="485" text-anchor="middle" font-size="10" font-family="Arial" font-weight="bold" fill="#555">57</text>
  <circle cx="355" cy="462" r="6" fill="#333"/><text x="348" y="473" text-anchor="middle" font-size="10" font-family="Arial" font-weight="bold" fill="#555">58</text>
  <circle cx="345" cy="448" r="6" fill="#333"/><text x="338" y="459" text-anchor="middle" font-size="10" font-family="Arial" font-weight="bold" fill="#555">59</text>
  <circle cx="332" cy="452" r="6" fill="#333"/><text x="325" y="463" text-anchor="middle" font-size="10" font-family="Arial" font-weight="bold" fill="#555">60</text>

  <!-- Body bottom + left leg: 61–72 -->
  <circle cx="310" cy="458" r="6" fill="#333"/><text x="310" y="469" text-anchor="middle" font-size="10" font-family="Arial" font-weight="bold" fill="#555">61</text>
  <circle cx="285" cy="462" r="6" fill="#333"/><text x="285" y="473" text-anchor="middle" font-size="10" font-family="Arial" font-weight="bold" fill="#555">62</text>
  <circle cx="260" cy="460" r="6" fill="#333"/><text x="260" y="471" text-anchor="middle" font-size="10" font-family="Arial" font-weight="bold" fill="#555">63</text>
  <circle cx="238" cy="455" r="6" fill="#333"/><text x="238" y="466" text-anchor="middle" font-size="10" font-family="Arial" font-weight="bold" fill="#555">64</text>
  <circle cx="225" cy="462" r="6" fill="#333"/><text x="215" y="472" text-anchor="middle" font-size="10" font-family="Arial" font-weight="bold" fill="#555">65</text>
  <circle cx="210" cy="472" r="6" fill="#333"/><text x="200" y="482" text-anchor="middle" font-size="10" font-family="Arial" font-weight="bold" fill="#555">66</text>
  <circle cx="198" cy="480" r="6" fill="#333"/><text x="188" y="490" text-anchor="middle" font-size="10" font-family="Arial" font-weight="bold" fill="#555">67</text>
  <circle cx="188" cy="474" r="6" fill="#333"/><text x="178" y="470" text-anchor="middle" font-size="10" font-family="Arial" font-weight="bold" fill="#555">68</text>
  <circle cx="192" cy="460" r="6" fill="#333"/><text x="182" y="456" text-anchor="middle" font-size="10" font-family="Arial" font-weight="bold" fill="#555">69</text>
  <circle cx="205" cy="448" r="6" fill="#333"/><text x="195" y="444" text-anchor="middle" font-size="10" font-family="Arial" font-weight="bold" fill="#555">70</text>

  <!-- Left body side + left arm: 71–84 -->
  <circle cx="208" cy="432" r="6" fill="#333"/><text x="197" y="428" text-anchor="middle" font-size="10" font-family="Arial" font-weight="bold" fill="#555">71</text>
  <circle cx="205" cy="408" r="6" fill="#333"/><text x="194" y="404" text-anchor="middle" font-size="10" font-family="Arial" font-weight="bold" fill="#555">72</text>
  <circle cx="208" cy="382" r="6" fill="#333"/><text x="197" y="378" text-anchor="middle" font-size="10" font-family="Arial" font-weight="bold" fill="#555">73</text>
  <circle cx="215" cy="358" r="6" fill="#333"/><text x="204" y="354" text-anchor="middle" font-size="10" font-family="Arial" font-weight="bold" fill="#555">74</text>
  <circle cx="225" cy="338" r="6" fill="#333"/><text x="215" y="332" text-anchor="middle" font-size="10" font-family="Arial" font-weight="bold" fill="#555">75</text>
  <circle cx="215" cy="325" r="6" fill="#333"/><text x="204" y="318" text-anchor="middle" font-size="10" font-family="Arial" font-weight="bold" fill="#555">76</text>
  <circle cx="202" cy="315" r="6" fill="#333"/><text x="191" y="308" text-anchor="middle" font-size="10" font-family="Arial" font-weight="bold" fill="#555">77</text>
  <circle cx="192" cy="305" r="6" fill="#333"/><text x="181" y="298" text-anchor="middle" font-size="10" font-family="Arial" font-weight="bold" fill="#555">78</text>
  <circle cx="188" cy="322" r="6" fill="#333"/><text x="177" y="328" text-anchor="middle" font-size="10" font-family="Arial" font-weight="bold" fill="#555">79</text>
  <circle cx="195" cy="335" r="6" fill="#333"/><text x="184" y="341" text-anchor="middle" font-size="10" font-family="Arial" font-weight="bold" fill="#555">80</text>
  <circle cx="210" cy="342" r="6" fill="#333"/><text x="210" y="353" text-anchor="middle" font-size="10" font-family="Arial" font-weight="bold" fill="#555">81</text>
  <circle cx="240" cy="318" r="6" fill="#333"/><text x="240" y="309" text-anchor="middle" font-size="10" font-family="Arial" font-weight="bold" fill="#555">82</text>
  <circle cx="248" cy="305" r="6" fill="#333"/><text x="248" y="296" text-anchor="middle" font-size="10" font-family="Arial" font-weight="bold" fill="#555">83</text>
  <circle cx="262" cy="298" r="6" fill="#333"/><text x="262" y="289" text-anchor="middle" font-size="10" font-family="Arial" font-weight="bold" fill="#555">84</text>

  <!-- ============================================================
       PATH B: Easter egg (dots 85–95)
       ============================================================ -->
  <circle cx="340" cy="312" r="6" fill="#333"/><text x="340" y="303" text-anchor="middle" font-size="10" font-family="Arial" font-weight="bold" fill="#555">85</text>
  <circle cx="358" cy="305" r="6" fill="#333"/><text x="358" y="296" text-anchor="middle" font-size="10" font-family="Arial" font-weight="bold" fill="#555">86</text>
  <circle cx="375" cy="315" r="6" fill="#333"/><text x="385" y="312" text-anchor="middle" font-size="10" font-family="Arial" font-weight="bold" fill="#555">87</text>
  <circle cx="385" cy="332" r="6" fill="#333"/><text x="395" y="329" text-anchor="middle" font-size="10" font-family="Arial" font-weight="bold" fill="#555">88</text>
  <circle cx="390" cy="355" r="6" fill="#333"/><text x="400" y="352" text-anchor="middle" font-size="10" font-family="Arial" font-weight="bold" fill="#555">89</text>
  <circle cx="382" cy="378" r="6" fill="#333"/><text x="392" y="378" text-anchor="middle" font-size="10" font-family="Arial" font-weight="bold" fill="#555">90</text>
  <circle cx="365" cy="392" r="6" fill="#333"/><text x="365" y="403" text-anchor="middle" font-size="10" font-family="Arial" font-weight="bold" fill="#555">91</text>
  <circle cx="345" cy="395" r="6" fill="#333"/><text x="345" y="406" text-anchor="middle" font-size="10" font-family="Arial" font-weight="bold" fill="#555">92</text>
  <circle cx="328" cy="382" r="6" fill="#333"/><text x="318" y="382" text-anchor="middle" font-size="10" font-family="Arial" font-weight="bold" fill="#555">93</text>
  <circle cx="320" cy="360" r="6" fill="#333"/><text x="310" y="360" text-anchor="middle" font-size="10" font-family="Arial" font-weight="bold" fill="#555">94</text>
  <circle cx="325" cy="338" r="6" fill="#333"/><text x="315" y="335" text-anchor="middle" font-size="10" font-family="Arial" font-weight="bold" fill="#555">95</text>

  <!-- ============================================================
       PATH C: Left flower (dots 96–98)
       ============================================================ -->
  <circle cx="108" cy="298" r="6" fill="#333"/><text x="98" y="293" text-anchor="middle" font-size="10" font-family="Arial" font-weight="bold" fill="#555">96</text>
  <circle cx="120" cy="315" r="6" fill="#333"/><text x="130" y="313" text-anchor="middle" font-size="10" font-family="Arial" font-weight="bold" fill="#555">97</text>
  <circle cx="105" cy="330" r="6" fill="#333"/><text x="94" y="330" text-anchor="middle" font-size="10" font-family="Arial" font-weight="bold" fill="#555">98</text>

  <!-- ============================================================
       PATH D: Right flower + grass (dots 99–100)
       ============================================================ -->
  <circle cx="415" cy="312" r="6" fill="#333"/><text x="425" y="310" text-anchor="middle" font-size="10" font-family="Arial" font-weight="bold" fill="#555">99</text>
  <circle cx="428" cy="330" r="6" fill="#333"/><text x="438" y="328" text-anchor="middle" font-size="10" font-family="Arial" font-weight="bold" fill="#555">100</text>

  <!-- Ground line -->
  <line x1="80" y1="490" x2="440" y2="490" stroke="#ccc" stroke-width="1.5" stroke-dasharray="4,4"/>

</svg>
